<svg xmlns="http://www.w3.org/2000/svg" xmlns:xlink="http://www.w3.org/1999/xlink" width="269" zoomAndPan="magnify" viewBox="0 0 201.75 49.499998" height="66" preserveAspectRatio="xMidYMid meet" version="1.0"><defs><g/><clipPath id="6639dc8718"><path d="M 0.886719 0 L 200.617188 0 L 200.617188 49.003906 L 0.886719 49.003906 Z M 0.886719 0 " clip-rule="nonzero"/></clipPath><clipPath id="7e6252fcd5"><path d="M 94.632812 18.328125 L 106.847656 18.328125 L 106.847656 30.539062 L 94.632812 30.539062 Z M 94.632812 18.328125 " clip-rule="nonzero"/></clipPath><clipPath id="fb5bc1098e"><path d="M 100.738281 18.328125 C 97.367188 18.328125 94.632812 21.0625 94.632812 24.433594 C 94.632812 27.808594 97.367188 30.539062 100.738281 30.539062 C 104.113281 30.539062 106.847656 27.808594 106.847656 24.433594 C 106.847656 21.0625 104.113281 18.328125 100.738281 18.328125 Z M 100.738281 18.328125 " clip-rule="nonzero"/></clipPath><clipPath id="5c877b1680"><path d="M 94.632812 18.328125 L 106.511719 18.328125 L 106.511719 30.207031 L 94.632812 30.207031 Z M 94.632812 18.328125 " clip-rule="nonzero"/></clipPath><clipPath id="e581c42960"><path d="M 100.734375 18.328125 C 97.363281 18.328125 94.632812 21.058594 94.632812 24.429688 C 94.632812 27.800781 97.363281 30.53125 100.734375 30.53125 C 104.105469 30.53125 106.835938 27.800781 106.835938 24.429688 C 106.835938 21.058594 104.105469 18.328125 100.734375 18.328125 Z M 100.734375 18.328125 " clip-rule="nonzero"/></clipPath></defs><g clip-path="url(#6639dc8718)"><path fill="#ffffff" d="M 0.886719 0 L 200.617188 0 L 200.617188 49.003906 L 0.886719 49.003906 Z M 0.886719 0 " fill-opacity="1" fill-rule="nonzero"/></g><g fill="#1d83c4" fill-opacity="1"><g transform="translate(7.710487, 33.49963)"><g><path d="M 24.640625 -6.71875 C 24.640625 -2.238281 21.765625 0 16.015625 0 L 3.421875 0 C 3.203125 0 3.007812 -0.078125 2.84375 -0.234375 C 2.675781 -0.398438 2.59375 -0.597656 2.59375 -0.828125 L 2.59375 -20.5625 C 2.59375 -20.789062 2.675781 -20.984375 2.84375 -21.140625 C 3.007812 -21.304688 3.203125 -21.390625 3.421875 -21.390625 L 15.703125 -21.390625 C 18.597656 -21.390625 20.734375 -20.863281 22.109375 -19.8125 C 23.484375 -18.769531 24.171875 -17.1875 24.171875 -15.0625 L 24.171875 -14.96875 C 24.171875 -14 23.90625 -13.164062 23.375 -12.46875 C 22.84375 -11.78125 22.296875 -11.34375 21.734375 -11.15625 C 22.523438 -10.90625 23.207031 -10.367188 23.78125 -9.546875 C 24.351562 -8.722656 24.640625 -7.78125 24.640625 -6.71875 Z M 10.546875 -8.25 L 10.546875 -5.25 L 14.96875 -5.25 C 15.4375 -5.25 15.785156 -5.40625 16.015625 -5.71875 C 16.253906 -6.039062 16.375 -6.394531 16.375 -6.78125 L 16.375 -6.8125 C 16.375 -7.195312 16.25 -7.53125 16 -7.8125 C 15.75 -8.101562 15.40625 -8.25 14.96875 -8.25 Z M 15.5625 -13.796875 C 15.78125 -14.085938 15.890625 -14.414062 15.890625 -14.78125 C 15.890625 -15.15625 15.78125 -15.472656 15.5625 -15.734375 C 15.351562 -16.003906 15.046875 -16.140625 14.640625 -16.140625 L 10.546875 -16.140625 L 10.546875 -13.359375 L 14.640625 -13.359375 C 15.046875 -13.359375 15.351562 -13.503906 15.5625 -13.796875 Z M 15.5625 -13.796875 "/></g></g></g><g fill="#1d83c4" fill-opacity="1"><g transform="translate(34.388391, 33.49963)"><g><path d="M 2.4375 -21.390625 L 23.53125 -21.390625 C 23.757812 -21.390625 23.953125 -21.304688 24.109375 -21.140625 C 24.273438 -20.984375 24.359375 -20.789062 24.359375 -20.5625 L 24.359375 -15.640625 C 24.359375 -15.421875 24.273438 -15.226562 24.109375 -15.0625 C 23.953125 -14.90625 23.757812 -14.828125 23.53125 -14.828125 L 16.96875 -14.828125 L 16.96875 -0.828125 C 16.96875 -0.597656 16.882812 -0.398438 16.71875 -0.234375 C 16.550781 -0.078125 16.359375 0 16.140625 0 L 9.84375 0 C 9.613281 0 9.414062 -0.078125 9.25 -0.234375 C 9.09375 -0.398438 9.015625 -0.597656 9.015625 -0.828125 L 9.015625 -14.828125 L 2.4375 -14.828125 C 2.21875 -14.828125 2.023438 -14.90625 1.859375 -15.0625 C 1.703125 -15.226562 1.625 -15.421875 1.625 -15.640625 L 1.625 -20.5625 C 1.625 -20.789062 1.703125 -20.984375 1.859375 -21.140625 C 2.023438 -21.304688 2.21875 -21.390625 2.4375 -21.390625 Z M 2.4375 -21.390625 "/></g></g></g><g fill="#1d83c4" fill-opacity="1"><g transform="translate(61.066295, 33.49963)"><g><path d="M 17.875 -21.390625 L 24.328125 -21.390625 C 24.515625 -21.390625 24.671875 -21.320312 24.796875 -21.1875 C 24.929688 -21.0625 25 -20.9375 25 -20.8125 C 25 -20.6875 24.988281 -20.582031 24.96875 -20.5 L 17.9375 -1.015625 C 17.71875 -0.335938 17.257812 0 16.5625 0 L 9.4375 0 C 8.769531 0 8.320312 -0.304688 8.09375 -0.921875 L 1.015625 -20.5 C 0.992188 -20.582031 0.984375 -20.6875 0.984375 -20.8125 C 0.984375 -20.9375 1.046875 -21.0625 1.171875 -21.1875 C 1.304688 -21.320312 1.46875 -21.390625 1.65625 -21.390625 L 8.09375 -21.390625 C 8.46875 -21.390625 8.769531 -21.28125 9 -21.0625 C 9.238281 -20.851562 9.394531 -20.628906 9.46875 -20.390625 L 12.984375 -8.6875 L 16.5 -20.390625 C 16.6875 -21.054688 17.144531 -21.390625 17.875 -21.390625 Z M 17.875 -21.390625 "/></g></g></g><g fill="#1d83c4" fill-opacity="1"><g transform="translate(87.744199, 33.49963)"><g/></g></g><g fill="#1d83c4" fill-opacity="1"><g transform="translate(114.422103, 33.49963)"><g><path d="M 3.140625 -21.390625 L 12.890625 -21.390625 C 15.140625 -21.390625 17.085938 -21.09375 18.734375 -20.5 C 20.378906 -19.914062 21.710938 -18.921875 22.734375 -17.515625 C 23.753906 -16.109375 24.265625 -14.351562 24.265625 -12.25 L 24.265625 -9.140625 C 24.265625 -5.878906 23.164062 -3.503906 20.96875 -2.015625 C 18.945312 -0.671875 16.253906 0 12.890625 0 L 3.140625 0 C 2.921875 0 2.726562 -0.078125 2.5625 -0.234375 C 2.40625 -0.398438 2.328125 -0.597656 2.328125 -0.828125 L 2.328125 -20.5625 C 2.328125 -20.789062 2.40625 -20.984375 2.5625 -21.140625 C 2.726562 -21.304688 2.921875 -21.390625 3.140625 -21.390625 Z M 10.265625 -15.4375 L 10.265625 -5.953125 L 13.046875 -5.953125 C 14.003906 -5.953125 14.765625 -6.179688 15.328125 -6.640625 C 15.890625 -7.097656 16.171875 -7.75 16.171875 -8.59375 L 16.171875 -12.8125 C 16.171875 -13.644531 15.890625 -14.289062 15.328125 -14.75 C 14.765625 -15.207031 14.003906 -15.4375 13.046875 -15.4375 Z M 10.265625 -15.4375 "/></g></g></g><g fill="#1d83c4" fill-opacity="1"><g transform="translate(141.100008, 33.49963)"><g><path d="M 10.703125 -5.953125 L 22.890625 -5.953125 C 23.117188 -5.953125 23.3125 -5.867188 23.46875 -5.703125 C 23.632812 -5.546875 23.71875 -5.359375 23.71875 -5.140625 L 23.71875 -0.828125 C 23.71875 -0.597656 23.632812 -0.398438 23.46875 -0.234375 C 23.3125 -0.078125 23.117188 0 22.890625 0 L 3.578125 0 C 3.347656 0 3.148438 -0.078125 2.984375 -0.234375 C 2.828125 -0.398438 2.75 -0.597656 2.75 -0.828125 L 2.75 -20.5625 C 2.75 -20.789062 2.828125 -20.984375 2.984375 -21.140625 C 3.148438 -21.304688 3.347656 -21.390625 3.578125 -21.390625 L 22.578125 -21.390625 C 22.804688 -21.390625 23 -21.304688 23.15625 -21.140625 C 23.320312 -20.984375 23.40625 -20.789062 23.40625 -20.5625 L 23.40625 -16.265625 C 23.40625 -16.035156 23.320312 -15.835938 23.15625 -15.671875 C 23 -15.515625 22.804688 -15.4375 22.578125 -15.4375 L 10.703125 -15.4375 L 10.703125 -13.515625 L 20.90625 -13.515625 C 21.125 -13.515625 21.316406 -13.429688 21.484375 -13.265625 C 21.648438 -13.097656 21.734375 -12.90625 21.734375 -12.6875 L 21.734375 -8.703125 C 21.734375 -8.484375 21.648438 -8.289062 21.484375 -8.125 C 21.316406 -7.96875 21.125 -7.890625 20.90625 -7.890625 L 10.703125 -7.890625 Z M 10.703125 -5.953125 "/></g></g></g><g fill="#1d83c4" fill-opacity="1"><g transform="translate(167.777912, 33.49963)"><g><path d="M 17.875 -21.390625 L 24.328125 -21.390625 C 24.515625 -21.390625 24.671875 -21.320312 24.796875 -21.1875 C 24.929688 -21.0625 25 -20.9375 25 -20.8125 C 25 -20.6875 24.988281 -20.582031 24.96875 -20.5 L 17.9375 -1.015625 C 17.71875 -0.335938 17.257812 0 16.5625 0 L 9.4375 0 C 8.769531 0 8.320312 -0.304688 8.09375 -0.921875 L 1.015625 -20.5 C 0.992188 -20.582031 0.984375 -20.6875 0.984375 -20.8125 C 0.984375 -20.9375 1.046875 -21.0625 1.171875 -21.1875 C 1.304688 -21.320312 1.46875 -21.390625 1.65625 -21.390625 L 8.09375 -21.390625 C 8.46875 -21.390625 8.769531 -21.28125 9 -21.0625 C 9.238281 -20.851562 9.394531 -20.628906 9.46875 -20.390625 L 12.984375 -8.6875 L 16.5 -20.390625 C 16.6875 -21.054688 17.144531 -21.390625 17.875 -21.390625 Z M 17.875 -21.390625 "/></g></g></g><g clip-path="url(#7e6252fcd5)"><g clip-path="url(#fb5bc1098e)"><path fill="#343434" d="M 94.632812 18.328125 L 106.847656 18.328125 L 106.847656 30.539062 L 94.632812 30.539062 Z M 94.632812 18.328125 " fill-opacity="1" fill-rule="nonzero"/></g></g><g clip-path="url(#5c877b1680)"><g clip-path="url(#e581c42960)"><path stroke-linecap="butt" transform="matrix(0.7425, 0, 0, 0.7425, 94.632707, 18.326782)" fill="none" stroke-linejoin="miter" d="M 8.217736 0.00180867 C 3.677542 0.00180867 0.000142707 3.679208 0.000142707 8.219402 C 0.000142707 12.759596 3.677542 16.436995 8.217736 16.436995 C 12.75793 16.436995 16.435329 12.759596 16.435329 8.219402 C 16.435329 3.679208 12.75793 0.00180867 8.217736 0.00180867 Z M 8.217736 0.00180867 " stroke="#343434" stroke-width="8" stroke-opacity="1" stroke-miterlimit="4"/></g></g></svg>